<svg id="SvgjsSvg1259" width="801.5" height="599" xmlns="http://www.w3.org/2000/svg" version="1.1" xmlns:xlink="http://www.w3.org/1999/xlink" xmlns:svgjs="http://svgjs.com/svgjs"><defs id="SvgjsDefs1260"><pattern patternUnits="userSpaceOnUse" id="pattern_mark_0" width="300" height="300"><text x="150" y="100" fill="rgba(229,229,229,0.8)" font-size="18" transform="rotate(-45, 150, 150)" style="dominant-baseline: middle; text-anchor: middle;"></text></pattern><pattern patternUnits="userSpaceOnUse" id="pattern_mark_1" width="300" height="300"><text x="150" y="200" fill="rgba(229,229,229,0.8)" font-size="18" transform="rotate(-45, 150, 150)" style="dominant-baseline: middle; text-anchor: middle;"></text></pattern><marker id="SvgjsMarker1358" markerWidth="13" markerHeight="9" refX="3.5" refY="4.5" viewBox="0 0 13 9" orient="auto" markerUnits="userSpaceOnUse" stroke-dasharray="0,0"><path id="SvgjsPath1359" d="M13,0 L0,4.5 L13,9 L13,0" fill="#323232" stroke="#323232" stroke-width="1"></path></marker><marker id="SvgjsMarker1360" markerWidth="13" markerHeight="9" refX="9.5" refY="4.5" viewBox="0 0 13 9" orient="auto" markerUnits="userSpaceOnUse" stroke-dasharray="0,0"><path id="SvgjsPath1361" d="M0,0 L13,4.5 L0,9 L0,0" fill="#323232" stroke="#323232" stroke-width="1"></path></marker><marker id="SvgjsMarker1364" markerWidth="13" markerHeight="9" refX="3.5" refY="4.5" viewBox="0 0 13 9" orient="auto" markerUnits="userSpaceOnUse" stroke-dasharray="0,0"><path id="SvgjsPath1365" d="M13,0 L0,4.5 L13,9 L13,0" fill="#323232" stroke="#323232" stroke-width="1"></path></marker><marker id="SvgjsMarker1366" markerWidth="13" markerHeight="9" refX="9.5" refY="4.5" viewBox="0 0 13 9" orient="auto" markerUnits="userSpaceOnUse" stroke-dasharray="0,0"><path id="SvgjsPath1367" d="M0,0 L13,4.5 L0,9 L0,0" fill="#323232" stroke="#323232" stroke-width="1"></path></marker><marker id="SvgjsMarker1370" markerWidth="13" markerHeight="9" refX="3.5" refY="4.5" viewBox="0 0 13 9" orient="auto" markerUnits="userSpaceOnUse" stroke-dasharray="0,0"><path id="SvgjsPath1371" d="M13,0 L0,4.5 L13,9 L13,0" fill="#323232" stroke="#323232" stroke-width="1"></path></marker><marker id="SvgjsMarker1372" markerWidth="13" markerHeight="9" refX="9.5" refY="4.5" viewBox="0 0 13 9" orient="auto" markerUnits="userSpaceOnUse" stroke-dasharray="0,0"><path id="SvgjsPath1373" d="M0,0 L13,4.5 L0,9 L0,0" fill="#323232" stroke="#323232" stroke-width="1"></path></marker><marker id="SvgjsMarker1400" markerWidth="13" markerHeight="9" refX="3.5" refY="4.5" viewBox="0 0 13 9" orient="auto" markerUnits="userSpaceOnUse" stroke-dasharray="0,0"><path id="SvgjsPath1401" d="M13,0 L0,4.5 L13,9 L13,0" fill="#323232" stroke="#323232" stroke-width="1"></path></marker><marker id="SvgjsMarker1402" markerWidth="13" markerHeight="9" refX="9.5" refY="4.5" viewBox="0 0 13 9" orient="auto" markerUnits="userSpaceOnUse" stroke-dasharray="0,0"><path id="SvgjsPath1403" d="M0,0 L13,4.5 L0,9 L0,0" fill="#323232" stroke="#323232" stroke-width="1"></path></marker><marker id="SvgjsMarker1406" markerWidth="13" markerHeight="9" refX="3.5" refY="4.5" viewBox="0 0 13 9" orient="auto" markerUnits="userSpaceOnUse" stroke-dasharray="0,0"><path id="SvgjsPath1407" d="M13,0 L0,4.5 L13,9 L13,0" fill="#323232" stroke="#323232" stroke-width="1"></path></marker><marker id="SvgjsMarker1408" markerWidth="13" markerHeight="9" refX="9.5" refY="4.5" viewBox="0 0 13 9" orient="auto" markerUnits="userSpaceOnUse" stroke-dasharray="0,0"><path id="SvgjsPath1409" d="M0,0 L13,4.5 L0,9 L0,0" fill="#323232" stroke="#323232" stroke-width="1"></path></marker><marker id="SvgjsMarker1436" markerWidth="13" markerHeight="9" refX="3.5" refY="4.5" viewBox="0 0 13 9" orient="auto" markerUnits="userSpaceOnUse" stroke-dasharray="0,0"><path id="SvgjsPath1437" d="M13,0 L0,4.5 L13,9 L13,0" fill="#323232" stroke="#323232" stroke-width="1"></path></marker><marker id="SvgjsMarker1438" markerWidth="13" markerHeight="9" refX="9.5" refY="4.5" viewBox="0 0 13 9" orient="auto" markerUnits="userSpaceOnUse" stroke-dasharray="0,0"><path id="SvgjsPath1439" d="M0,0 L13,4.5 L0,9 L0,0" fill="#323232" stroke="#323232" stroke-width="1"></path></marker><marker id="SvgjsMarker1442" markerWidth="13" markerHeight="9" refX="3.5" refY="4.5" viewBox="0 0 13 9" orient="auto" markerUnits="userSpaceOnUse" stroke-dasharray="0,0"><path id="SvgjsPath1443" d="M13,0 L0,4.5 L13,9 L13,0" fill="#323232" stroke="#323232" stroke-width="1"></path></marker><marker id="SvgjsMarker1444" markerWidth="13" markerHeight="9" refX="9.5" refY="4.5" viewBox="0 0 13 9" orient="auto" markerUnits="userSpaceOnUse" stroke-dasharray="0,0"><path id="SvgjsPath1445" d="M0,0 L13,4.5 L0,9 L0,0" fill="#323232" stroke="#323232" stroke-width="1"></path></marker><marker id="SvgjsMarker1448" markerWidth="13" markerHeight="9" refX="3.5" refY="4.5" viewBox="0 0 13 9" orient="auto" markerUnits="userSpaceOnUse" stroke-dasharray="0,0"><path id="SvgjsPath1449" d="M13,0 L0,4.5 L13,9 L13,0" fill="#323232" stroke="#323232" stroke-width="1"></path></marker><marker id="SvgjsMarker1450" markerWidth="13" markerHeight="9" refX="9.5" refY="4.5" viewBox="0 0 13 9" orient="auto" markerUnits="userSpaceOnUse" stroke-dasharray="0,0"><path id="SvgjsPath1451" d="M0,0 L13,4.5 L0,9 L0,0" fill="#323232" stroke="#323232" stroke-width="1"></path></marker><marker id="SvgjsMarker1454" markerWidth="13" markerHeight="9" refX="9.5" refY="4.5" viewBox="0 0 13 9" orient="auto" markerUnits="userSpaceOnUse" stroke-dasharray="0,0"><path id="SvgjsPath1455" d="M0,0 L13,4.5 L0,9 L0,0" fill="#323232" stroke="#323232" stroke-width="1"></path></marker><marker id="SvgjsMarker1458" markerWidth="13" markerHeight="9" refX="9.5" refY="4.5" viewBox="0 0 13 9" orient="auto" markerUnits="userSpaceOnUse" stroke-dasharray="0,0"><path id="SvgjsPath1459" d="M0,0 L13,4.5 L0,9 L0,0" fill="#323232" stroke="#323232" stroke-width="1"></path></marker><marker id="SvgjsMarker1462" markerWidth="13" markerHeight="9" refX="9.5" refY="4.5" viewBox="0 0 13 9" orient="auto" markerUnits="userSpaceOnUse" stroke-dasharray="0,0"><path id="SvgjsPath1463" d="M0,0 L13,4.5 L0,9 L0,0" fill="#323232" stroke="#323232" stroke-width="1"></path></marker><marker id="SvgjsMarker1466" markerWidth="13" markerHeight="9" refX="9.5" refY="4.5" viewBox="0 0 13 9" orient="auto" markerUnits="userSpaceOnUse" stroke-dasharray="0,0"><path id="SvgjsPath1467" d="M0,0 L13,4.5 L0,9 L0,0" fill="#323232" stroke="#323232" stroke-width="1"></path></marker><marker id="SvgjsMarker1498" markerWidth="13" markerHeight="9" refX="9.5" refY="4.5" viewBox="0 0 13 9" orient="auto" markerUnits="userSpaceOnUse" stroke-dasharray="0,0"><path id="SvgjsPath1499" d="M0,0 L13,4.5 L0,9 L0,0" fill="#323232" stroke="#323232" stroke-width="1"></path></marker><marker id="SvgjsMarker1502" markerWidth="13" markerHeight="9" refX="9.5" refY="4.5" viewBox="0 0 13 9" orient="auto" markerUnits="userSpaceOnUse" stroke-dasharray="0,0"><path id="SvgjsPath1503" d="M0,0 L13,4.5 L0,9 L0,0" fill="#323232" stroke="#323232" stroke-width="1"></path></marker><marker id="SvgjsMarker1506" markerWidth="13" markerHeight="9" refX="9.5" refY="4.5" viewBox="0 0 13 9" orient="auto" markerUnits="userSpaceOnUse" stroke-dasharray="0,0"><path id="SvgjsPath1507" d="M0,0 L13,4.5 L0,9 L0,0" fill="#323232" stroke="#323232" stroke-width="1"></path></marker><marker id="SvgjsMarker1510" markerWidth="13" markerHeight="9" refX="9.5" refY="4.5" viewBox="0 0 13 9" orient="auto" markerUnits="userSpaceOnUse" stroke-dasharray="0,0"><path id="SvgjsPath1511" d="M0,0 L13,4.5 L0,9 L0,0" fill="#323232" stroke="#323232" stroke-width="1"></path></marker></defs><rect id="svgbackgroundid" width="801.5" height="599" fill="transparent"></rect><rect id="SvgjsRect1262" width="801.5" height="599" fill="url(#pattern_mark_0)"></rect><rect id="SvgjsRect1263" width="801.5" height="599" fill="url(#pattern_mark_1)"></rect><g id="SvgjsG1264" transform="translate(25,118)"><path id="SvgjsPath1265" d="M 0 0L 147 0L 147 456L 0 456Z" stroke="rgba(33,41,48,1)" stroke-width="1.5" fill-opacity="1" fill="#ffffff"></path><g id="SvgjsG1266"><text id="SvgjsText1267" font-family="微软雅黑" text-anchor="middle" font-size="13px" width="127px" fill="#323232" font-weight="400" align="middle" lineHeight="125%" anchor="middle" family="微软雅黑" size="13px" weight="400" font-style="" opacity="1" y="217.375" transform="rotate(0)"></text></g></g><g id="SvgjsG1268" transform="translate(51,157)"><path id="SvgjsPath1269" d="M 0 0L 96 0L 96 54L 0 54Z" stroke="rgba(33,41,48,1)" stroke-width="1.5" fill-opacity="1" fill="#ffffff"></path><g id="SvgjsG1270"><text id="SvgjsText1271" font-family="微软雅黑" text-anchor="middle" font-size="13px" width="76px" fill="#323232" font-weight="400" align="middle" lineHeight="125%" anchor="middle" family="微软雅黑" size="13px" weight="400" font-style="" opacity="1" y="16.375" transform="rotate(0)"><tspan id="SvgjsTspan1272" dy="16.25" x="48"><tspan id="SvgjsTspan1273" style="">key1</tspan></tspan></text></g></g><g id="SvgjsG1274" transform="translate(51,233)"><path id="SvgjsPath1275" d="M 0 0L 96 0L 96 54L 0 54Z" stroke="rgba(33,41,48,1)" stroke-width="1.5" fill-opacity="1" fill="#ffffff"></path><g id="SvgjsG1276"><text id="SvgjsText1277" font-family="微软雅黑" text-anchor="middle" font-size="13px" width="76px" fill="#323232" font-weight="400" align="middle" lineHeight="125%" anchor="middle" family="微软雅黑" size="13px" weight="400" font-style="" opacity="1" y="16.375" transform="rotate(0)"><tspan id="SvgjsTspan1278" dy="16.25" x="48"><tspan id="SvgjsTspan1279" style="">key2</tspan></tspan></text></g></g><g id="SvgjsG1280" transform="translate(51,320)"><path id="SvgjsPath1281" d="M 0 0L 96 0L 96 54L 0 54Z" stroke="rgba(33,41,48,1)" stroke-width="1.5" fill-opacity="1" fill="#ffffff"></path><g id="SvgjsG1282"><text id="SvgjsText1283" font-family="微软雅黑" text-anchor="middle" font-size="13px" width="76px" fill="#323232" font-weight="400" align="middle" lineHeight="125%" anchor="middle" family="微软雅黑" size="13px" weight="400" font-style="" opacity="1" y="16.375" transform="rotate(0)"><tspan id="SvgjsTspan1284" dy="16.25" x="48"><tspan id="SvgjsTspan1285" style="">key3</tspan></tspan></text></g></g><g id="SvgjsG1286" transform="translate(51,400)"><path id="SvgjsPath1287" d="M 0 0L 96 0L 96 54L 0 54Z" stroke="rgba(33,41,48,1)" stroke-width="1.5" fill-opacity="1" fill="#ffffff"></path><g id="SvgjsG1288"><text id="SvgjsText1289" font-family="微软雅黑" text-anchor="middle" font-size="13px" width="76px" fill="#323232" font-weight="400" align="middle" lineHeight="125%" anchor="middle" family="微软雅黑" size="13px" weight="400" font-style="" opacity="1" y="16.375" transform="rotate(0)"><tspan id="SvgjsTspan1290" dy="16.25" x="48"><tspan id="SvgjsTspan1291" style="">key4</tspan></tspan></text></g></g><g id="SvgjsG1292" transform="translate(275,61)"><path id="SvgjsPath1293" d="M 0 0L 301 0L 301 70L 0 70Z" stroke="rgba(33,41,48,1)" stroke-width="1.5" fill-opacity="1" fill="#ffffff"></path><g id="SvgjsG1294"><text id="SvgjsText1295" font-family="微软雅黑" text-anchor="middle" font-size="13px" width="281px" fill="#323232" font-weight="400" align="middle" lineHeight="125%" anchor="middle" family="微软雅黑" size="13px" weight="400" font-style="" opacity="1" y="24.375" transform="rotate(0)"></text></g></g><g id="SvgjsG1296" transform="translate(49,80)"><path id="SvgjsPath1297" d="M 0 0L 100 0L 100 40L 0 40Z" stroke="none" fill="none"></path><g id="SvgjsG1298"><text id="SvgjsText1299" font-family="微软雅黑" text-anchor="middle" font-size="13px" width="100px" fill="#323232" font-weight="400" align="middle" lineHeight="125%" anchor="middle" family="微软雅黑" size="13px" weight="400" font-style="" opacity="1" y="9.375" transform="rotate(0)"><tspan id="SvgjsTspan1300" dy="16.25" x="50"><tspan id="SvgjsTspan1301" style="">nodeMap</tspan></tspan></text></g></g><g id="SvgjsG1302" transform="translate(372,25)"><path id="SvgjsPath1303" d="M 0 0L 100 0L 100 40L 0 40Z" stroke="none" fill="none"></path><g id="SvgjsG1304"><text id="SvgjsText1305" font-family="微软雅黑" text-anchor="middle" font-size="13px" width="100px" fill="#323232" font-weight="400" align="middle" lineHeight="125%" anchor="middle" family="微软雅黑" size="13px" weight="400" font-style="" opacity="1" y="9.375" transform="rotate(0)"><tspan id="SvgjsTspan1306" dy="16.25" x="50"><tspan id="SvgjsTspan1307" style="">freqMap</tspan></tspan></text></g></g><g id="SvgjsG1308" transform="translate(290,69)"><path id="SvgjsPath1309" d="M 0 0L 39 0L 39 54L 0 54Z" stroke="rgba(33,41,48,1)" stroke-width="1.5" fill-opacity="1" fill="#ffffff"></path><g id="SvgjsG1310"><text id="SvgjsText1311" font-family="微软雅黑" text-anchor="middle" font-size="13px" width="19px" fill="#323232" font-weight="400" align="middle" lineHeight="125%" anchor="middle" family="微软雅黑" size="13px" weight="400" font-style="" opacity="1" y="16.375" transform="rotate(0)"><tspan id="SvgjsTspan1312" dy="16.25" x="19.5"><tspan id="SvgjsTspan1313" style="">1</tspan></tspan></text></g></g><g id="SvgjsG1314" transform="translate(365.5,69)"><path id="SvgjsPath1315" d="M 0 0L 39 0L 39 54L 0 54Z" stroke="rgba(33,41,48,1)" stroke-width="1.5" fill-opacity="1" fill="#ffffff"></path><g id="SvgjsG1316"><text id="SvgjsText1317" font-family="微软雅黑" text-anchor="middle" font-size="13px" width="19px" fill="#323232" font-weight="400" align="middle" lineHeight="125%" anchor="middle" family="微软雅黑" size="13px" weight="400" font-style="" opacity="1" y="16.375" transform="rotate(0)"><tspan id="SvgjsTspan1318" dy="16.25" x="19.5"><tspan id="SvgjsTspan1319" style="">2</tspan></tspan></text></g></g><g id="SvgjsG1320" transform="translate(441,69)"><path id="SvgjsPath1321" d="M 0 0L 39 0L 39 54L 0 54Z" stroke="rgba(33,41,48,1)" stroke-width="1.5" fill-opacity="1" fill="#ffffff"></path><g id="SvgjsG1322"><text id="SvgjsText1323" font-family="微软雅黑" text-anchor="middle" font-size="13px" width="19px" fill="#323232" font-weight="400" align="middle" lineHeight="125%" anchor="middle" family="微软雅黑" size="13px" weight="400" font-style="" opacity="1" y="16.375" transform="rotate(0)"><tspan id="SvgjsTspan1324" dy="16.25" x="19.5"><tspan id="SvgjsTspan1325" style="">3</tspan></tspan></text></g></g><g id="SvgjsG1326" transform="translate(516.5,69)"><path id="SvgjsPath1327" d="M 0 0L 39 0L 39 54L 0 54Z" stroke="rgba(33,41,48,1)" stroke-width="1.5" fill-opacity="1" fill="#ffffff"></path><g id="SvgjsG1328"><text id="SvgjsText1329" font-family="微软雅黑" text-anchor="middle" font-size="13px" width="19px" fill="#323232" font-weight="400" align="middle" lineHeight="125%" anchor="middle" family="微软雅黑" size="13px" weight="400" font-style="" opacity="1" y="16.375" transform="rotate(0)"><tspan id="SvgjsTspan1330" dy="16.25" x="19.5"><tspan id="SvgjsTspan1331" style="">4</tspan></tspan></text></g></g><g id="SvgjsG1332" transform="translate(282,152)"><path id="SvgjsPath1333" d="M 0 0L 55 0L 55 42L 0 42Z" stroke="rgba(33,41,48,1)" stroke-width="1.5" fill-opacity="1" fill="#ffffff"></path><g id="SvgjsG1334"><text id="SvgjsText1335" font-family="微软雅黑" text-anchor="middle" font-size="13px" width="35px" fill="#323232" font-weight="400" align="middle" lineHeight="125%" anchor="middle" family="微软雅黑" size="13px" weight="400" font-style="" opacity="1" y="10.375" transform="rotate(0)"><tspan id="SvgjsTspan1336" dy="16.25" x="27.5"><tspan id="SvgjsTspan1337" style="">node</tspan></tspan></text></g></g><g id="SvgjsG1338" transform="translate(282,233)"><path id="SvgjsPath1339" d="M 0 0L 55 0L 55 42L 0 42Z" stroke="rgba(33,41,48,1)" stroke-width="1.5" fill-opacity="1" fill="#ffffff"></path><g id="SvgjsG1340"><text id="SvgjsText1341" font-family="微软雅黑" text-anchor="middle" font-size="13px" width="35px" fill="#323232" font-weight="400" align="middle" lineHeight="125%" anchor="middle" family="微软雅黑" size="13px" weight="400" font-style="" opacity="1" y="10.375" transform="rotate(0)"><tspan id="SvgjsTspan1342" dy="16.25" x="27.5"><tspan id="SvgjsTspan1343" style="">node</tspan></tspan></text></g></g><g id="SvgjsG1344" transform="translate(282,314)"><path id="SvgjsPath1345" d="M 0 0L 55 0L 55 42L 0 42Z" stroke="rgba(33,41,48,1)" stroke-width="1.5" fill-opacity="1" fill="#ffffff"></path><g id="SvgjsG1346"><text id="SvgjsText1347" font-family="微软雅黑" text-anchor="middle" font-size="13px" width="35px" fill="#323232" font-weight="400" align="middle" lineHeight="125%" anchor="middle" family="微软雅黑" size="13px" weight="400" font-style="" opacity="1" y="10.375" transform="rotate(0)"><tspan id="SvgjsTspan1348" dy="16.25" x="27.5"><tspan id="SvgjsTspan1349" style="">node</tspan></tspan></text></g></g><g id="SvgjsG1350" transform="translate(282,400)"><path id="SvgjsPath1351" d="M 0 0L 55 0L 55 42L 0 42Z" stroke="rgba(33,41,48,1)" stroke-width="1.5" fill-opacity="1" fill="#ffffff"></path><g id="SvgjsG1352"><text id="SvgjsText1353" font-family="微软雅黑" text-anchor="middle" font-size="13px" width="35px" fill="#323232" font-weight="400" align="middle" lineHeight="125%" anchor="middle" family="微软雅黑" size="13px" weight="400" font-style="" opacity="1" y="10.375" transform="rotate(0)"><tspan id="SvgjsTspan1354" dy="16.25" x="27.5"><tspan id="SvgjsTspan1355" style="">node</tspan></tspan></text></g></g><g id="SvgjsG1356"><path id="SvgjsPath1357" d="M309.5 196.7L309.5 213.5L309.5 213.5L309.5 230.3" stroke="#323232" stroke-width="1.5" fill="none" marker-start="url(#SvgjsMarker1358)" marker-end="url(#SvgjsMarker1360)"></path></g><g id="SvgjsG1362"><path id="SvgjsPath1363" d="M309.5 277.7L309.5 294.5L309.5 294.5L309.5 311.3" stroke="#323232" stroke-width="1.5" fill="none" marker-start="url(#SvgjsMarker1364)" marker-end="url(#SvgjsMarker1366)"></path></g><g id="SvgjsG1368"><path id="SvgjsPath1369" d="M309.5 358.7L309.5 378L309.5 378L309.5 397.3" stroke="#323232" stroke-width="1.5" fill="none" marker-start="url(#SvgjsMarker1370)" marker-end="url(#SvgjsMarker1372)"></path></g><g id="SvgjsG1374" transform="translate(357.5,152)"><path id="SvgjsPath1375" d="M 0 0L 55 0L 55 42L 0 42Z" stroke="rgba(33,41,48,1)" stroke-width="1.5" fill-opacity="1" fill="#ffffff"></path><g id="SvgjsG1376"><text id="SvgjsText1377" font-family="微软雅黑" text-anchor="middle" font-size="13px" width="35px" fill="#323232" font-weight="400" align="middle" lineHeight="125%" anchor="middle" family="微软雅黑" size="13px" weight="400" font-style="" opacity="1" y="10.375" transform="rotate(0)"><tspan id="SvgjsTspan1378" dy="16.25" x="27.5"><tspan id="SvgjsTspan1379" style="">node</tspan></tspan></text></g></g><g id="SvgjsG1380" transform="translate(433,152)"><path id="SvgjsPath1381" d="M 0 0L 55 0L 55 42L 0 42Z" stroke="rgba(33,41,48,1)" stroke-width="1.5" fill-opacity="1" fill="#ffffff"></path><g id="SvgjsG1382"><text id="SvgjsText1383" font-family="微软雅黑" text-anchor="middle" font-size="13px" width="35px" fill="#323232" font-weight="400" align="middle" lineHeight="125%" anchor="middle" family="微软雅黑" size="13px" weight="400" font-style="" opacity="1" y="10.375" transform="rotate(0)"><tspan id="SvgjsTspan1384" dy="16.25" x="27.5"><tspan id="SvgjsTspan1385" style="">node</tspan></tspan></text></g></g><g id="SvgjsG1386" transform="translate(433,233)"><path id="SvgjsPath1387" d="M 0 0L 55 0L 55 42L 0 42Z" stroke="rgba(33,41,48,1)" stroke-width="1.5" fill-opacity="1" fill="#ffffff"></path><g id="SvgjsG1388"><text id="SvgjsText1389" font-family="微软雅黑" text-anchor="middle" font-size="13px" width="35px" fill="#323232" font-weight="400" align="middle" lineHeight="125%" anchor="middle" family="微软雅黑" size="13px" weight="400" font-style="" opacity="1" y="10.375" transform="rotate(0)"><tspan id="SvgjsTspan1390" dy="16.25" x="27.5"><tspan id="SvgjsTspan1391" style="">node</tspan></tspan></text></g></g><g id="SvgjsG1392" transform="translate(433,314)"><path id="SvgjsPath1393" d="M 0 0L 55 0L 55 42L 0 42Z" stroke="rgba(33,41,48,1)" stroke-width="1.5" fill-opacity="1" fill="#ffffff"></path><g id="SvgjsG1394"><text id="SvgjsText1395" font-family="微软雅黑" text-anchor="middle" font-size="13px" width="35px" fill="#323232" font-weight="400" align="middle" lineHeight="125%" anchor="middle" family="微软雅黑" size="13px" weight="400" font-style="" opacity="1" y="10.375" transform="rotate(0)"><tspan id="SvgjsTspan1396" dy="16.25" x="27.5"><tspan id="SvgjsTspan1397" style="">node</tspan></tspan></text></g></g><g id="SvgjsG1398"><path id="SvgjsPath1399" d="M460.5 196.7L460.5 213.5L460.5 213.5L460.5 230.3" stroke="#323232" stroke-width="1.5" fill="none" marker-start="url(#SvgjsMarker1400)" marker-end="url(#SvgjsMarker1402)"></path></g><g id="SvgjsG1404"><path id="SvgjsPath1405" d="M460.5 277.7L460.5 294.5L460.5 294.5L460.5 311.3" stroke="#323232" stroke-width="1.5" fill="none" marker-start="url(#SvgjsMarker1406)" marker-end="url(#SvgjsMarker1408)"></path></g><g id="SvgjsG1410" transform="translate(508.5,152)"><path id="SvgjsPath1411" d="M 0 0L 55 0L 55 42L 0 42Z" stroke="rgba(33,41,48,1)" stroke-width="1.5" fill-opacity="1" fill="#ffffff"></path><g id="SvgjsG1412"><text id="SvgjsText1413" font-family="微软雅黑" text-anchor="middle" font-size="13px" width="35px" fill="#323232" font-weight="400" align="middle" lineHeight="125%" anchor="middle" family="微软雅黑" size="13px" weight="400" font-style="" opacity="1" y="10.375" transform="rotate(0)"><tspan id="SvgjsTspan1414" dy="16.25" x="27.5"><tspan id="SvgjsTspan1415" style="">node</tspan></tspan></text></g></g><g id="SvgjsG1416" transform="translate(508.5,233)"><path id="SvgjsPath1417" d="M 0 0L 55 0L 55 42L 0 42Z" stroke="rgba(33,41,48,1)" stroke-width="1.5" fill-opacity="1" fill="#ffffff"></path><g id="SvgjsG1418"><text id="SvgjsText1419" font-family="微软雅黑" text-anchor="middle" font-size="13px" width="35px" fill="#323232" font-weight="400" align="middle" lineHeight="125%" anchor="middle" family="微软雅黑" size="13px" weight="400" font-style="" opacity="1" y="10.375" transform="rotate(0)"><tspan id="SvgjsTspan1420" dy="16.25" x="27.5"><tspan id="SvgjsTspan1421" style="">node</tspan></tspan></text></g></g><g id="SvgjsG1422" transform="translate(508.5,314)"><path id="SvgjsPath1423" d="M 0 0L 55 0L 55 42L 0 42Z" stroke="rgba(33,41,48,1)" stroke-width="1.5" fill-opacity="1" fill="#ffffff"></path><g id="SvgjsG1424"><text id="SvgjsText1425" font-family="微软雅黑" text-anchor="middle" font-size="13px" width="35px" fill="#323232" font-weight="400" align="middle" lineHeight="125%" anchor="middle" family="微软雅黑" size="13px" weight="400" font-style="" opacity="1" y="10.375" transform="rotate(0)"><tspan id="SvgjsTspan1426" dy="16.25" x="27.5"><tspan id="SvgjsTspan1427" style="">node</tspan></tspan></text></g></g><g id="SvgjsG1428" transform="translate(508.5,420)"><path id="SvgjsPath1429" d="M 0 0L 55 0L 55 42L 0 42Z" stroke="rgba(33,41,48,1)" stroke-width="1.5" fill-opacity="1" fill="#ffffff"></path><g id="SvgjsG1430"><text id="SvgjsText1431" font-family="微软雅黑" text-anchor="middle" font-size="13px" width="35px" fill="#323232" font-weight="400" align="middle" lineHeight="125%" anchor="middle" family="微软雅黑" size="13px" weight="400" font-style="" opacity="1" y="10.375" transform="rotate(0)"><tspan id="SvgjsTspan1432" dy="16.25" x="27.5"><tspan id="SvgjsTspan1433" style="">node</tspan></tspan></text></g></g><g id="SvgjsG1434"><path id="SvgjsPath1435" d="M536 196.7L536 213.5L536 213.5L536 230.3" stroke="#323232" stroke-width="1.5" fill="none" marker-start="url(#SvgjsMarker1436)" marker-end="url(#SvgjsMarker1438)"></path></g><g id="SvgjsG1440"><path id="SvgjsPath1441" d="M536 277.7L536 294.5L536 294.5L536 311.3" stroke="#323232" stroke-width="1.5" fill="none" marker-start="url(#SvgjsMarker1442)" marker-end="url(#SvgjsMarker1444)"></path></g><g id="SvgjsG1446"><path id="SvgjsPath1447" d="M536 358.7L536 417.3" stroke="#323232" stroke-width="1.5" fill="none" marker-start="url(#SvgjsMarker1448)" marker-end="url(#SvgjsMarker1450)"></path></g><g id="SvgjsG1452"><path id="SvgjsPath1453" d="M309.5 123.75L309.5 137.5L309.5 137.5L309.5 149.3" stroke="#323232" stroke-width="1.5" fill="none" marker-end="url(#SvgjsMarker1454)"></path></g><g id="SvgjsG1456"><path id="SvgjsPath1457" d="M385 123.75L385 137.5L385 137.5L385 149.3" stroke="#323232" stroke-width="1.5" fill="none" marker-end="url(#SvgjsMarker1458)"></path></g><g id="SvgjsG1460"><path id="SvgjsPath1461" d="M460.5 123.75L460.5 137.5L460.5 137.5L460.5 149.3" stroke="#323232" stroke-width="1.5" fill="none" marker-end="url(#SvgjsMarker1462)"></path></g><g id="SvgjsG1464"><path id="SvgjsPath1465" d="M536 123.75L536 137.5L536 137.5L536 149.3" stroke="#323232" stroke-width="1.5" fill="none" marker-end="url(#SvgjsMarker1466)"></path></g><g id="SvgjsG1468" transform="translate(679,123)"><path id="SvgjsPath1469" d="M 0 0L 96 0L 96 141L 0 141Z" stroke="rgba(33,41,48,1)" stroke-width="1.5" fill-opacity="1" fill="#ffffff"></path><g id="SvgjsG1470"><text id="SvgjsText1471" font-family="微软雅黑" text-anchor="middle" font-size="13px" width="76px" fill="#323232" font-weight="400" align="middle" lineHeight="125%" anchor="middle" family="微软雅黑" size="13px" weight="400" font-style="" opacity="1" y="59.875" transform="rotate(0)"></text></g></g><g id="SvgjsG1472" transform="translate(676.5,91)"><path id="SvgjsPath1473" d="M 0 0L 100 0L 100 40L 0 40Z" stroke="none" fill="none"></path><g id="SvgjsG1474"><text id="SvgjsText1475" font-family="微软雅黑" text-anchor="middle" font-size="13px" width="100px" fill="#323232" font-weight="400" align="middle" lineHeight="125%" anchor="middle" family="微软雅黑" size="13px" weight="400" font-style="" opacity="1" y="9.375" transform="rotate(0)"><tspan id="SvgjsTspan1476" dy="16.25" x="50"><tspan id="SvgjsTspan1477" style="">node</tspan></tspan></text></g></g><g id="SvgjsG1478" transform="translate(696,131)"><path id="SvgjsPath1479" d="M 0 0L 61 0L 61 37L 0 37Z" stroke="rgba(33,41,48,1)" stroke-width="1.5" fill-opacity="1" fill="#ffffff"></path><g id="SvgjsG1480"><text id="SvgjsText1481" font-family="微软雅黑" text-anchor="middle" font-size="13px" width="41px" fill="#323232" font-weight="400" align="middle" lineHeight="125%" anchor="middle" family="微软雅黑" size="13px" weight="400" font-style="" opacity="1" y="7.875" transform="rotate(0)"><tspan id="SvgjsTspan1482" dy="16.25" x="30.5"><tspan id="SvgjsTspan1483" style="">key</tspan></tspan></text></g></g><g id="SvgjsG1484" transform="translate(696,174)"><path id="SvgjsPath1485" d="M 0 0L 61 0L 61 37L 0 37Z" stroke="rgba(33,41,48,1)" stroke-width="1.5" fill-opacity="1" fill="#ffffff"></path><g id="SvgjsG1486"><text id="SvgjsText1487" font-family="微软雅黑" text-anchor="middle" font-size="13px" width="41px" fill="#323232" font-weight="400" align="middle" lineHeight="125%" anchor="middle" family="微软雅黑" size="13px" weight="400" font-style="" opacity="1" y="7.875" transform="rotate(0)"><tspan id="SvgjsTspan1488" dy="16.25" x="30.5"><tspan id="SvgjsTspan1489" style="">value</tspan></tspan></text></g></g><g id="SvgjsG1490" transform="translate(696,217)"><path id="SvgjsPath1491" d="M 0 0L 61 0L 61 37L 0 37Z" stroke="rgba(33,41,48,1)" stroke-width="1.5" fill-opacity="1" fill="#ffffff"></path><g id="SvgjsG1492"><text id="SvgjsText1493" font-family="微软雅黑" text-anchor="middle" font-size="13px" width="41px" fill="#323232" font-weight="400" align="middle" lineHeight="125%" anchor="middle" family="微软雅黑" size="13px" weight="400" font-style="" opacity="1" y="7.875" transform="rotate(0)"><tspan id="SvgjsTspan1494" dy="16.25" x="30.5"><tspan id="SvgjsTspan1495" style="">freq</tspan></tspan></text></g></g><g id="SvgjsG1496"><path id="SvgjsPath1497" d="M147.6658158985867 184.34523787334126L279.6030627650879 252.7571436559715" stroke="#323232" stroke-width="1.5" fill="none" marker-end="url(#SvgjsMarker1498)"></path></g><g id="SvgjsG1500"><path id="SvgjsPath1501" d="M147.72546992236207 260.1902456090111L430.3883082794965 334.3151158075603" stroke="#323232" stroke-width="1.5" fill="none" marker-end="url(#SvgjsMarker1502)"></path></g><g id="SvgjsG1504"><path id="SvgjsPath1505" d="M147.65767555012715 347.36050363488454L279.63236801954224 419.70218691441573" stroke="#323232" stroke-width="1.5" fill="none" marker-end="url(#SvgjsMarker1506)"></path></g><g id="SvgjsG1508"><path id="SvgjsPath1509" d="M147.74943819894776 427.02902388598966L505.80202248378805 440.8955140104372" stroke="#323232" stroke-width="1.5" fill="none" marker-end="url(#SvgjsMarker1510)"></path></g></svg>